<svg width="25" height="24" viewBox="0 0 25 24" fill="none" xmlns="http://www.w3.org/2000/svg">
<path d="M7.10034 15.0499H19.2503C19.9928 15.0499 20.6003 15.6574 20.6003 16.3999C20.6003 17.1424 19.9928 17.7499 19.2503 17.7499H5.75034C5.00784 17.7499 4.40034 17.1424 4.40034 16.3999V2.89989H1.70034C0.957842 2.89989 0.350342 2.29239 0.350342 1.54989C0.350342 0.80739 0.957842 0.19989 1.70034 0.19989H5.75034C6.49284 0.19989 7.10034 0.80739 7.10034 1.54989V4.24989H24.6503L19.2503 13.6999H7.10034V15.0499ZM6.42534 19.0999C7.54584 19.0999 8.45034 20.0044 8.45034 21.1249C8.45034 22.2454 7.54584 23.1499 6.42534 23.1499C5.30484 23.1499 4.40034 22.2454 4.40034 21.1249C4.40034 20.0044 5.30484 19.0999 6.42534 19.0999ZM18.5753 19.0999C19.6958 19.0999 20.6003 20.0044 20.6003 21.1249C20.6003 22.2454 19.6958 23.1499 18.5753 23.1499C17.4548 23.1499 16.5503 22.2454 16.5503 21.1249C16.5503 20.0044 17.4548 19.0999 18.5753 19.0999Z" fill="white"/>
</svg>
