<svg width="23" height="24" viewBox="0 0 23 24" fill="none" xmlns="http://www.w3.org/2000/svg">
<path d="M18.0351 17.1941L22.8535 22.0114L21.2616 23.6033L16.4444 18.7849C14.652 20.2218 12.4225 21.0033 10.1252 21C4.53624 21 0.000244141 16.464 0.000244141 10.875C0.000244141 5.286 4.53624 0.75 10.1252 0.75C15.7142 0.75 20.2502 5.286 20.2502 10.875C20.2535 13.1723 19.472 15.4017 18.0351 17.1941ZM15.7784 16.3594C17.2061 14.8911 18.0035 12.923 18.0002 10.875C18.0002 6.5235 14.4756 3 10.1252 3C5.77374 3 2.25024 6.5235 2.25024 10.875C2.25024 15.2254 5.77374 18.75 10.1252 18.75C12.1732 18.7532 14.1414 17.9559 15.6096 16.5281L15.7784 16.3594Z" fill="white"/>
</svg>
